<svg xmlns="http://www.w3.org/2000/svg" viewBox="0 0 64 64" role="img" aria-label="Kodelumi"><defs><linearGradient id="kl" x1="6" y1="16" x2="32" y2="54" gradientUnits="userSpaceOnUse"><stop offset="0" stop-color="#8B5CF6"/><stop offset="1" stop-color="#6366F1"/></linearGradient><linearGradient id="kr" x1="32" y1="16" x2="58" y2="54" gradientUnits="userSpaceOnUse"><stop offset="0" stop-color="#4F7BF7"/><stop offset="1" stop-color="#22D3EE"/></linearGradient></defs><path d="M32 21C25 15.5 15 14.6 6 17.2V51C15 48.6 25 49.4 32 55Z" fill="url(#kl)"/><path d="M32 21C39 15.5 49 14.6 58 17.2V51C49 48.6 39 49.4 32 55Z" fill="url(#kr)"/><path d="M32 21V55" stroke="#fff" stroke-opacity=".35" stroke-width="1.4"/><g fill="none" stroke="#fff" stroke-width="3.4" stroke-linecap="round" stroke-linejoin="round"><path d="M21.5 29.5L14.5 36L21.5 42.5"/><path d="M42.5 29.5L49.5 36L42.5 42.5"/><path d="M35.2 27.5L28.8 44.5"/></g><path d="M32 1.5C32.9 5.6 34.4 7.1 38.5 8C34.4 8.9 32.9 10.4 32 14.5C31.1 10.4 29.6 8.9 25.5 8C29.6 7.1 31.1 5.6 32 1.5Z" fill="#FBBF24"/></svg>